HIERARCHY
ROOT Hips
{
  OFFSET -35.2597 29.1586 114.425
  CHANNELS 6 Xposition Yposition Zposition Zrotation Xrotation Yrotation
  JOINT LeftUpLeg
  {
    OFFSET 8.64259 1.95398 -2.38835
    CHANNELS 3 Zrotation Xrotation Yrotation
    JOINT LeftLeg
    {
      OFFSET 43.7702 0 0
      CHANNELS 3 Zrotation Xrotation Yrotation
      JOINT LeftFoot
      {
        OFFSET 40.6238 0 0
        CHANNELS 3 Zrotation Xrotation Yrotation
        JOINT LeftToeBase
        {
          OFFSET 12.7242 0 0
          CHANNELS 3 Zrotation Xrotation Yrotation
          End Site
          {
            OFFSET 0 0 0
          }
        }
      }
    }
  }
  JOINT RightUpLeg
  {
    OFFSET -8.2249 1.95398 -2.59336
    CHANNELS 3 Zrotation Xrotation Yrotation
    JOINT RightLeg
    {
      OFFSET 43.5653 0 0
      CHANNELS 3 Zrotation Xrotation Yrotation
      JOINT RightFoot
      {
        OFFSET 40.6238 0 0
        CHANNELS 3 Zrotation Xrotation Yrotation
        JOINT RightToeBase
        {
          OFFSET 12.7242 0 0
          CHANNELS 3 Zrotation Xrotation Yrotation
          End Site
          {
            OFFSET 0 0 0
          }
        }
      }
    }
  }
  JOINT Spine
  {
    OFFSET 0.165834 0.87714 6.61349
    CHANNELS 3 Zrotation Xrotation Yrotation
    JOINT Spine1
    {
      OFFSET 7.38963 1.71661e-005 0
      CHANNELS 3 Zrotation Xrotation Yrotation
      JOINT Spine2
      {
        OFFSET 11.9445 1.14441e-005 0
        CHANNELS 3 Zrotation Xrotation Yrotation
        JOINT Spine3
        {
          OFFSET 14.7254 4.19617e-005 0
          CHANNELS 3 Zrotation Xrotation Yrotation
          JOINT Spine4
          {
            OFFSET 10.9679 0 0
            CHANNELS 3 Zrotation Xrotation Yrotation
            JOINT RightShoulder
            {
              OFFSET 2.46616 -1.6653 3.69651
              CHANNELS 3 Zrotation Xrotation Yrotation
              JOINT RightArm
              {
                OFFSET 13.0012 0 0
                CHANNELS 3 Zrotation Xrotation Yrotation
                JOINT RightForeArm
                {
                  OFFSET 28.7848 1.62311e-005 0
                  CHANNELS 3 Zrotation Xrotation Yrotation
                  JOINT RightHand
                  {
                    OFFSET 26.5688 1.62095e-005 0
                    CHANNELS 3 Zrotation Xrotation Yrotation
                    End Site
                    {
                      OFFSET 0 0 0
                    }
                  }
                }
              }
            }
            JOINT LeftShoulder
            {
              OFFSET 2.38034 -1.29275 -3.7523
              CHANNELS 3 Zrotation Xrotation Yrotation
              JOINT LeftArm
              {
                OFFSET 16.3182 6.07031e-005 0
                CHANNELS 3 Zrotation Xrotation Yrotation
                JOINT LeftForeArm
                {
                  OFFSET 27.0901 0 0
                  CHANNELS 3 Zrotation Xrotation Yrotation
                  JOINT LeftHand
                  {
                    OFFSET 24.5451 1.51738e-005 0
                    CHANNELS 3 Zrotation Xrotation Yrotation
                    End Site
                    {
                      OFFSET 0 0 0
                    }
                  }
                }
              }
            }
            JOINT Neck
            {
              OFFSET 5.0226 -0.0266342 0
              CHANNELS 3 Zrotation Xrotation Yrotation
              JOINT Head
              {
                OFFSET 6.69364 2.86102e-005 0
                CHANNELS 3 Zrotation Xrotation Yrotation
                End Site
                {
                  OFFSET 0 0 0
                }
              }
            }
          }
        }
      }
    }
  }
}
MOTION
Frames:	12
Frame Time:	0.0416667
-199.645 93.8435 183.296 -96.7465 -43.2218 -95.3702 -176.5 22.8694 89.3568 -18.5502 9.8925 -1.19401 65.0295 3.39792 0.431928 10.6325 -15.8889 8.03982 175.668 -3.67207 90.5468 -31.0698 -19.5234 -3.26641 80.4674 -15.0909 -3.16623 31.2855 -2.2445 4.48407 1.20083 7.59749 -90.1411 11.6863 2.32231 -0.524196 0.0172839 2.297 -0.625947 -22.5345 2.37241 0.198384 -2.52189 2.37242 0.198384 90.7647 -30.0755 -105.213 38.6816 8.12165 -11.3942 -5.49322 -44.7229 -5.56801 -24.0919 3.51207 -22.0088 -84.6172 -65.1578 88.4503 -10.6699 -19.0939 -8.361 2.727 19.3959 -3.78193 2.19444 -0.553522 -15.9419 -0.32522 -1.09838 5.36919 -13.8003 -0.761769 -9.59083 
-195.808 95.4399 177.565 -99.7146 -48.5469 -98.9411 -174.324 23.7365 87.4367 -30.7613 -0.0862928 -2.24759 66.8692 4.38503 -0.236668 9.76652 -15.5938 6.88931 175.001 -1.22426 90.9198 -29.6978 -16.136 -1.91438 76.838 -12.044 -3.11118 28.4551 -1.1236 4.26914 0.274228 7.89461 -90.3146 11.0857 0.400015 -0.664111 -0.585325 0.370397 -0.681083 -23.1202 0.5811 -0.513181 -3.10751 0.581111 -0.513191 90.6714 -31.019 -105.061 37.8825 9.38503 -6.79492 -5.07133 -38.4906 -5.32136 -26.5208 3.62424 -20.8742 -86.2141 -59.5099 85.7258 -15.7507 -17.3896 -20.6828 3.09428 30.0664 -4.1631 6.62762 -1.30138 -19.825 -2.81238 0.535346 2.23971 -11.7401 0.347181 -0.876237 
-192.703 96.5856 173.382 -100.592 -50.6012 -100.074 -173.251 23.1369 88.1304 -50.9113 7.3328 -0.725927 65.6103 3.40773 1.51848 6.94697 -17.1758 6.38199 174.612 0.47885 91.0595 -26.9016 -15.8181 -1.14311 73.1129 -9.1156 -2.56619 26.6734 -0.581969 4.70405 -0.258951 7.89699 -90.5386 11.0754 -0.765286 -0.9965 -0.595679 -0.808387 -0.961853 -23.1288 -0.43044 -1.1804 -3.11613 -0.430424 -1.1804 91.1034 -32.4753 -103.729 37.2692 10.7077 -0.88517 -4.81676 -34.1615 -5.1944 -24.3646 2.77047 -18.2624 -86.0588 -54.6342 85.2995 -20.1268 -14.8427 -31.8964 3.2148 32.9975 -4.28334 6.8374 -1.74366 -24.6248 -4.96834 1.79493 1.23412 -13.0183 1.37439 2.89187 
-189.8 96.7574 170.205 -101.067 -49.6038 -99.6362 -173.113 15.2523 90.3133 -60.1071 10.6103 1.36686 62.3089 1.14377 1.84454 7.82702 -15.2306 4.76088 174.97 3.23231 91.1765 -26.8884 -16.7548 -0.883414 71.2025 -7.698 -2.4784 25 -0.078211 5.11492 -0.453636 7.86613 -90.7785 11.132 -1.2645 -1.42744 -0.539003 -1.3261 -1.37041 -23.0702 -0.777105 -1.74141 -3.05757 -0.777112 -1.7414 92.355 -33.1125 -101.129 39.3565 10.945 4.36621 -4.61294 -30.3706 -5.1051 -22.8054 1.87144 -14.7719 -86.2959 -52.449 84.6508 -22.2389 -13.0811 -38.8366 3.07629 29.6623 -4.13613 8.70268 -2.2687 -26.5393 -6.25121 2.8297 1.17589 -13.5884 2.19606 4.94685 
-186.807 96.5214 167.42 -101.66 -46.9953 -99.0687 -172.81 2.43783 93.0919 -55.7129 17.5542 2.47474 60.2106 -0.103128 -0.373975 11.4452 -12.7723 4.72245 175.322 6.29314 91.6943 -28.7789 -19.2873 -0.845795 69.6131 -6.29394 -2.13699 23.6052 0.341941 5.42891 -0.837983 7.73306 -90.9298 11.3908 -2.10109 -1.64034 -0.279396 -2.17124 -1.54628 -22.8142 -1.51109 -2.19586 -2.80155 -1.51108 -2.19586 90.948 -33.2802 -103.764 40.9454 11.4978 9.60816 -4.6849 -31.744 -5.13515 -21.2781 1.25489 -12.1174 -85.7463 -52.6304 85.4808 -23.5587 -12.104 -38.3283 2.89113 24.0403 -3.91361 10.3389 -2.43414 -25.1825 -8.48099 4.92143 3.67916 -13.8404 4.15454 4.99928 
-182.896 95.7521 163.848 -101.004 -45.3464 -98.555 -171.572 -6.99133 94.5007 -45.1213 21.9593 1.90744 65.2793 3.66961 -0.72959 17.2295 -9.96907 6.07451 176.653 11.8073 92.0614 -32.092 -20.6414 -1.77123 67.5303 -4.81939 -2.29674 23.2953 0.57531 5.09078 -1.16321 7.64839 -90.9569 11.5566 -2.76187 -1.62294 -0.112315 -2.83063 -1.49976 -22.6549 -2.14654 -2.37798 -2.64223 -2.14654 -2.37798 91.72 -33.403 -102.256 42.6079 11.0635 9.66258 -4.68388 -31.7235 -5.1348 -18.7866 1.72235 -15.9873 -86.1808 -54.5811 85.1192 -23.8809 -12.0613 -35.4632 2.75811 20.5015 -3.81672 5.36167 -1.71772 -28.1246 -8.9317 6.47865 5.09686 -14.4292 5.49697 6.13312 
-177.121 94.8419 158.712 -101.234 -46.4673 -99.4299 -170.501 -9.35999 93.0128 -37.0725 21.9384 0.137178 70.415 7.61607 -0.198673 33.0721 -2.95133 11.0196 177.284 17.0329 91.2729 -31.893 -19.5825 -2.16113 63.8265 -1.96658 -1.29295 21.7193 1.12041 5.25533 -1.52395 7.79373 -90.8211 11.2678 -3.41505 -1.29597 -0.399128 -3.46878 -1.14426 -22.9563 -2.86766 -2.26293 -2.94366 -2.86766 -2.26294 91.912 -34.3951 -101.6 45.4029 9.38596 5.88892 -4.5165 -28.4803 -5.06778 -21.3464 2.65806 -19.5874 -86.6863 -54.5172 84.3847 -24.4241 -11.8695 -32.9422 2.9641 26.4926 -4.02413 3.20071 -1.18448 -26.9265 -7.95385 7.06791 4.51896 -14.3777 6.03325 6.62698 
-170.072 94.1484 152.419 -101.797 -47.3974 -101.152 -170.755 -7.82693 91.1637 -33.1063 20.7986 -1.28247 79.7304 14.1143 -1.02548 32.2338 -4.4454 12.9948 177.567 19.8531 89.4574 -25.3562 -19.1001 -2.48045 57.3861 2.35657 0.244279 21.8442 1.50201 4.06352 -1.47108 8.05238 -90.4635 10.7634 -3.14308 -0.631502 -0.9038 -3.16784 -0.492427 -23.4634 -2.80791 -1.54759 -3.45071 -2.8079 -1.54759 91.26 -36.3595 -102.241 45.0931 8.52555 2.0008 -4.65529 -31.1807 -5.12123 -24.0774 3.66859 -22.7641 -86.9738 -52.8698 83.7234 -24.6974 -11.8156 -31.2009 3.31169 35.1573 -4.37838 0.723476 -0.518451 -19.2305 -6.91566 5.99508 -0.0597001 -13.3459 5.20704 7.68546 
-163.76 94.4878 146.368 -101.942 -46.8937 -103.156 -171.851 -4.90381 88.0477 -30.0319 18.8591 -2.52115 83.3986 16.4097 -2.04059 22.8948 -9.92112 11.7295 175.652 20.1449 87.0645 -18.4513 -5.91006 -0.75655 61.8795 -0.506883 -0.451298 18.6659 2.54074 4.64932 -1.11457 8.29692 -90.0262 10.2829 -2.23255 0.140162 -1.38613 -2.22418 0.238324 -23.9361 -2.17141 -0.537612 -3.92345 -2.1714 -0.537618 90.3613 -37.8026 -103.437 42.6409 8.59907 -1.39763 -4.86598 -35.0311 -5.2171 -24.6299 3.13127 -19.8652 -86.9663 -53.2545 83.7938 -22.2054 -13.692 -26.4654 3.67645 41.8964 -4.75187 -1.89539 -0.139714 -16.1425 -7.46784 4.0266 -3.04093 -10.785 3.78203 5.75461 
-158.657 96.409 141.699 -101.505 -45.2276 -101.027 -172.522 -1.62461 87.9389 -27.1289 17.8067 -2.51198 78.6011 13.5976 0.493852 16.8734 -12.9431 9.99682 172.645 18.7705 87.3434 -20.8476 5.62809 2.69657 60.9961 0.120425 -0.430965 19.3048 2.64429 3.73366 -0.286734 8.3298 -90.0783 10.2138 -0.606792 -0.103639 -1.457 -0.610762 -0.0768401 -23.993 -0.54758 -0.281225 -3.98037 -0.547592 -0.281228 89.3598 -35.9546 -105.832 42.2826 8.8642 -0.826777 -4.7957 -33.7841 -5.18416 -22.8412 2.50709 -17.9633 -86.4097 -54.4659 84.7745 -19.9103 -15.2262 -16.2347 3.39754 36.0929 -4.48974 2.20228 -0.41271 -12.1951 -9.81542 1.70663 -3.73618 -9.21334 1.79191 1.88977 
-154.801 97.6772 137.867 -101.582 -44.4923 -99.1687 -173.726 0.578358 88.2386 -24.697 16.2348 -1.34828 75.1517 10.5117 -0.389149 14.8028 -14.8517 10.603 169.508 15.311 87.188 -34.94 2.56837 3.6505 63.7555 -1.88413 -0.503258 22.9188 0.986962 4.33107 0.450773 8.26541 -90.1522 10.345 0.828307 -0.376091 -1.32573 0.810948 -0.412192 -23.863 0.903041 -0.10975 -3.8504 0.903043 -0.109753 88.2973 -34.5885 -108.263 41.0697 9.44297 -0.216905 -4.81262 -34.0371 -5.19242 -23.193 2.79816 -19.1662 -85.6413 -54.9083 85.9353 -15.5878 -17.054 -5.91189 3.26589 34.1928 -4.33421 2.13907 -0.420729 -12.7665 -12.7701 -0.225414 -4.87181 -7.09962 -0.0230257 -1.57778 
-151.499 97.4671 133.906 -102.853 -44.8481 -100.681 -174.912 3.22749 87.8834 -24.8585 15.9819 -0.609331 73.9568 9.13476 -2.07954 13.1517 -15.4373 9.79751 166.76 9.42161 83.8477 -49.9133 -4.66814 2.04763 65.688 -3.68282 -2.56014 24.9531 -0.00245049 4.937 0.903199 8.13149 -89.955 10.6127 1.81959 -0.0750933 -1.05695 1.81451 -0.155129 -23.6019 1.75801 0.475422 -3.58922 1.758 0.475413 87.8159 -34.1894 -109.309 39.3573 9.95623 -0.783989 -4.79998 -33.8335 -5.18632 -25.0419 3.20483 -19.9448 -84.8148 -55.5001 87.1807 -11.975 -17.8547 3.12324 3.32788 35.4758 -4.39844 3.2156 -0.473502 -12.1845 -15.6732 -1.8037 -6.70723 -5.40713 -1.67799 -3.31244 
